# xmcd
#
# Track frame offsets:
#	182
#	16152
#	32147
#	46005
#
# Disc length: 811 seconds
#
# Revision: 0
# Processed by: cddbd v1.5PL3 Copyright (c) Steve Scherf et al.
# Submitted via: audiograbber 1.83.01
#
DISCID=22032904
DTITLE=Victoria Shaw - Sampler
DYEAR=1995
DGENRE=Country
TTITLE0=You Don't Know Love
TTITLE1=Forgiveness
TTITLE2=(A Day In The Life Of A) Single Man
TTITLE3=Good As Gone
EXTD=
EXTT0=
EXTT1=
EXTT2=
EXTT3=
PLAYORDER=
